<svg width="640" height="360" viewBox="0 0 640 360" fill="none" xmlns="http://www.w3.org/2000/svg">
  <defs>
    <linearGradient id="bg" x1="0" y1="0" x2="640" y2="360" gradientUnits="userSpaceOnUse">
      <stop stop-color="#F8FAFC"/>
      <stop offset="1" stop-color="#E2E8F0"/>
    </linearGradient>
  </defs>
  <rect width="640" height="360" rx="24" fill="url(#bg)"/>
  <rect x="60" y="48" width="520" height="264" rx="16" fill="white" stroke="#CBD5E1"/>
  <rect x="60" y="48" width="520" height="48" rx="16" fill="#E2E8F0"/>
  <rect x="86" y="66" width="100" height="12" rx="6" fill="#475569"/>
  <rect x="210" y="66" width="80" height="12" rx="6" fill="#475569"/>
  <rect x="318" y="66" width="88" height="12" rx="6" fill="#475569"/>
  <rect x="434" y="66" width="118" height="12" rx="6" fill="#475569"/>
  <rect x="86" y="116" width="168" height="12" rx="6" fill="#94A3B8"/>
  <rect x="274" y="116" width="74" height="12" rx="6" fill="#94A3B8"/>
  <rect x="370" y="116" width="80" height="12" rx="6" fill="#10B981"/>
  <rect x="474" y="116" width="78" height="12" rx="6" fill="#F97316"/>
  <rect x="86" y="150" width="172" height="12" rx="6" fill="#94A3B8"/>
  <rect x="274" y="150" width="74" height="12" rx="6" fill="#94A3B8"/>
  <rect x="370" y="150" width="80" height="12" rx="6" fill="#38BDF8"/>
  <rect x="474" y="150" width="78" height="12" rx="6" fill="#0EA5E9"/>
  <rect x="86" y="184" width="160" height="12" rx="6" fill="#94A3B8"/>
  <rect x="274" y="184" width="74" height="12" rx="6" fill="#94A3B8"/>
  <rect x="370" y="184" width="80" height="12" rx="6" fill="#F97316"/>
  <rect x="474" y="184" width="78" height="12" rx="6" fill="#22C55E"/>
  <rect x="86" y="218" width="176" height="12" rx="6" fill="#94A3B8"/>
  <rect x="274" y="218" width="74" height="12" rx="6" fill="#94A3B8"/>
  <rect x="370" y="218" width="80" height="12" rx="6" fill="#22C55E"/>
  <rect x="474" y="218" width="78" height="12" rx="6" fill="#F97316"/>
  <rect x="86" y="252" width="154" height="12" rx="6" fill="#94A3B8"/>
  <rect x="274" y="252" width="74" height="12" rx="6" fill="#94A3B8"/>
  <rect x="370" y="252" width="80" height="12" rx="6" fill="#0EA5E9"/>
  <rect x="474" y="252" width="78" height="12" rx="6" fill="#10B981"/>
</svg>
