<svg width="640" height="360" viewBox="0 0 640 360" fill="none" xmlns="http://www.w3.org/2000/svg">
  <defs>
    <linearGradient id="bg-chart" x1="0" y1="0" x2="640" y2="360" gradientUnits="userSpaceOnUse">
      <stop stop-color="#F8FAFC"/>
      <stop offset="1" stop-color="#E2E8F0"/>
    </linearGradient>
  </defs>
  <rect width="640" height="360" rx="24" fill="url(#bg-chart)"/>
  <rect x="54" y="42" width="532" height="276" rx="16" fill="white" stroke="#CBD5E1"/>
  <line x1="82" y1="266" x2="560" y2="266" stroke="#CBD5E1"/>
  <line x1="82" y1="220" x2="560" y2="220" stroke="#E2E8F0"/>
  <line x1="82" y1="174" x2="560" y2="174" stroke="#E2E8F0"/>
  <line x1="82" y1="128" x2="560" y2="128" stroke="#E2E8F0"/>
  <line x1="82" y1="82" x2="560" y2="82" stroke="#E2E8F0"/>
  <line x1="82" y1="160" x2="560" y2="160" stroke="#F97316" stroke-width="2" stroke-dasharray="8 6"/>
  <path d="M82 248L122 232L162 238L202 216L242 220L282 194L322 200L362 170L402 176L442 148L482 156L522 130L560 136" stroke="#0EA5E9" stroke-width="5" stroke-linecap="round" stroke-linejoin="round"/>
  <path d="M82 248L122 232L162 238L202 216L242 220L282 194L322 200L362 170L402 176L442 148L482 156L522 130L560 136V266H82V248Z" fill="#BAE6FD" fill-opacity="0.58"/>
  <circle cx="82" cy="248" r="5" fill="#0284C7"/>
  <circle cx="122" cy="232" r="5" fill="#0284C7"/>
  <circle cx="162" cy="238" r="5" fill="#0284C7"/>
  <circle cx="202" cy="216" r="5" fill="#0284C7"/>
  <circle cx="242" cy="220" r="5" fill="#0284C7"/>
  <circle cx="282" cy="194" r="5" fill="#0284C7"/>
  <circle cx="322" cy="200" r="5" fill="#0284C7"/>
  <circle cx="362" cy="170" r="5" fill="#0284C7"/>
  <circle cx="402" cy="176" r="5" fill="#0284C7"/>
  <circle cx="442" cy="148" r="5" fill="#0284C7"/>
  <circle cx="482" cy="156" r="5" fill="#0284C7"/>
  <circle cx="522" cy="130" r="5" fill="#0284C7"/>
  <circle cx="560" cy="136" r="5" fill="#0284C7"/>
</svg>
